<svg id="Layer_1" data-name="Layer 1" xmlns="http://www.w3.org/2000/svg" viewBox="0 0 1000 1000"><defs><style>.cls-1{fill:#212529;}.cls-2{opacity:0.35;}.cls-3,.cls-4{fill:#fff;}.cls-4{font-size:267.19px;font-family:Montserrat-Bold, Montserrat;font-weight:700;}.cls-5{letter-spacing:0em;}.cls-6{letter-spacing:-0.01em;}.cls-7{letter-spacing:0em;}.cls-8{letter-spacing:-0.01em;}.cls-9{letter-spacing:-0.01em;}.cls-10{letter-spacing:-0.01em;}</style></defs><title>Artboard 1 copy 4</title><circle class="cls-1" cx="500" cy="500" r="500"/><g class="cls-2"><path class="cls-3" d="M853.36,558.66l5.53-3.65a23.6,23.6,0,0,0-27-38.72C463.09,774.14,194.63,529,183.35,518.45a23.6,23.6,0,0,0-32.43,34.3c.51.48,8.91,8.17,24.24,19.54L127.91,650.2a23.65,23.65,0,0,0,7.92,32.42,24,24,0,0,0,12.29,3.44,23.71,23.71,0,0,0,20.17-11.31l46.19-76.11a566.41,566.41,0,0,0,98.68,47.52L290.4,722.28a23.45,23.45,0,0,0,15.73,29.32l6.79,1a23.62,23.62,0,0,0,22.54-16.84L358,660.7A534.86,534.86,0,0,0,479.48,679v75.39a23.58,23.58,0,1,0,47.16,0V678.61a554.91,554.91,0,0,0,121.82-20.87l29,76.53a23.63,23.63,0,0,0,22,15.2l8.35-1.48a23.6,23.6,0,0,0,13.72-30.4L693.34,643a699.85,699.85,0,0,0,120.22-58.5l38.21,51A23.69,23.69,0,0,0,870.62,645a23.06,23.06,0,0,0,14.12-4.74,23.59,23.59,0,0,0,4.78-33Z"/><path class="cls-3" d="M904.51,374.23s-9.41-13.66-29.27-31.88c-9.7-9.62-22.44-19.31-37.32-30.53-15.16-10.09-32.38-22.06-52.32-32.18a457.27,457.27,0,0,0-66-28.86c-23.9-9.43-50.23-15-77.66-19.94-27.55-3.46-56.64-4.11-86-2.81-29.42,2.48-58.83,2.51-88.47,6.11C438,236.61,408.7,239.3,380.1,245c-14.33,2.49-28.53,4.49-42.36,7.55l-40.62,11.19a487.37,487.37,0,0,0-75,25.11c-23.44,8.94-45.18,17.95-64.23,28.86-19.27,10.18-36.94,18.88-52.13,27.61-14.45,9.86-27.14,18.41-37.58,25.46-20.35,14.24-32,22.4-32,22.4l-2.58,8.07a7,7,0,0,0,9,4.45l.76-.28L79.71,393c11.34-4,25.19-8.83,41-14.41,16.06-4.59,34.66-8.63,54.4-13.55,19.48-5.62,41.4-8.94,64.52-11.74,11.32-1.65,23-3.43,35-5.2,12.08-1.29,24.51-1.6,36.95-2.51l37.89-2.35c12.86.07,25.9.18,39,.3,26-.77,52.54,1.5,78.92,3.82,52.71,3.7,103.85,21,151.88,29.06,48.24,8,94.61,10.26,135.52,12.5,41,1.17,76.39,1.95,102.31.68,25.8-.93,41.64-2.53,41.64-2.53l3.9-1.5A8.22,8.22,0,0,0,904.51,374.23Z"/></g><text class="cls-4" transform="translate(248.84 463.51)"><tspan class="cls-5">E<tspan class="cls-6" x="177.95" y="0">y</tspan><tspan class="cls-7" x="333.72" y="0">e</tspan></tspan><tspan x="-177.95" y="229.02">b</tspan><tspan class="cls-8" x="6.41" y="229.02">r</tspan><tspan class="cls-9" x="119.17" y="229.02">o</tspan><tspan class="cls-10" x="290.17" y="229.02">w</tspan><tspan x="538.39" y="229.02">s</tspan></text></svg>