<svg id="Layer_1" data-name="Layer 1" xmlns="http://www.w3.org/2000/svg" viewBox="0 0 1000 1000"><defs><style>.cls-1{fill:#212529;}.cls-2{opacity:0.35;}.cls-3{fill:#fff;}</style></defs><title>Category icons</title><circle class="cls-1" cx="500" cy="500" r="500"/><g class="cls-2"><path class="cls-3" d="M853.36091,558.66l5.531-3.64919A23.59924,23.59924,0,0,0,831.898,516.29356c-368.805,257.84752-637.26954,12.68958-648.54776,2.15517a23.60131,23.60131,0,0,0-32.42961,34.2987c.50859.48315,8.90685,8.16941,24.23479,19.54294l-47.24259,77.91116a23.64719,23.64719,0,0,0,7.9151,32.41689,23.9985,23.9985,0,0,0,12.2954,3.43941,23.70122,23.70122,0,0,0,20.166-11.30363l46.1936-76.11836A566.39417,566.39417,0,0,0,313.164,646.1645l-22.76622,76.112a23.46286,23.46286,0,0,0,15.73481,29.32714l6.78982,1.00447a23.62441,23.62441,0,0,0,22.53733-16.841l22.5437-75.06937a534.99542,534.99542,0,0,0,121.47912,18.33505V754.42a23.5768,23.5768,0,1,0,47.15359,0V678.61326A554.867,554.867,0,0,0,648.465,657.7416l29.022,76.53161A23.64529,23.64529,0,0,0,699.53482,749.474l8.341-1.48766a23.58112,23.58112,0,0,0,13.71947-30.3952L693.33622,643.024a699.90248,699.90248,0,0,0,120.22667-58.5081l38.20224,50.99349a23.69754,23.69754,0,0,0,18.85,9.46631,23.08485,23.08485,0,0,0,14.12637-4.73635,23.58765,23.58765,0,0,0,4.78083-33.00816Z"/><path class="cls-3" d="M904.507,374.22883s-9.40276-13.6559-29.26355-31.88286c-9.70786-9.6189-22.442-19.30772-37.32491-30.52873-15.16265-10.08937-32.37876-22.05418-52.3222-32.18167A458.53509,458.53509,0,0,0,719.58,250.77887c-23.90422-9.42817-50.23062-14.9592-77.65685-19.93712-27.55341-3.46484-56.639-4.10695-85.95975-2.81638-29.42251,2.48579-58.8323,2.51757-88.47734,6.11592-29.47339,2.47306-58.78783,5.16229-87.39023,10.83954-14.32344,2.49214-28.5261,4.48839-42.35366,7.55271-13.71314,3.77635-27.2991,7.51456-40.62443,11.18284a487.81131,487.81131,0,0,0-75.01215,25.11848c-23.44011,8.93864-45.1764,17.94724-64.22349,28.85671-19.27594,10.17837-36.94344,18.87543-52.1315,27.60426-14.4506,9.86048-27.14018,18.41768-37.57919,25.4618-20.35036,14.24717-31.98459,22.40382-31.98459,22.40382L33.612,401.22913a7.00467,7.00467,0,0,0,8.9768,4.45025l.75654-.27972s13.1791-4.4884,36.3649-12.36534c11.34179-3.97343,25.18842-8.83056,40.98045-14.41882,16.05905-4.59011,34.65474-8.62712,54.40114-13.54784,19.47938-5.62,41.39369-8.93863,64.51593-11.7423,11.3227-1.64659,23.00779-3.4267,34.97261-5.19409,12.07926-1.29057,24.51452-1.60208,36.9498-2.51121q18.74826-1.173,37.8907-2.34592c12.86121.06994,25.90046.178,38.97149.29881,25.95767-.76925,52.53838,1.50037,78.91567,3.81449,52.7164,3.70007,103.85613,21.04334,151.8807,29.06013,48.2407,8.01682,94.61235,10.261,135.5165,12.5052,41.05039,1.16977,76.39808,1.95175,102.31764.68024,25.79242-.93454,41.64165-2.53663,41.64165-2.53663l3.89079-1.494A8.21412,8.21412,0,0,0,904.507,374.22883Z"/></g><path class="cls-3" d="M415.8362,428.773v34.73437H271.0198V276.47517H412.36257v34.73437h-98.3252v40.61328h86.83594v33.665H314.03737V428.773Z"/><path class="cls-3" d="M588.7073,319.76032,523.78054,472.32478q-9.8877,24.84815-24.44727,35.002-14.56639,10.1499-35.13574,10.15234a73.062,73.062,0,0,1-22.17676-3.47265,48.97451,48.97451,0,0,1-17.90136-9.61914l15.22949-29.65821a35.80277,35.80277,0,0,0,11.08887,6.67969,34.52447,34.52447,0,0,0,12.42382,2.40527q8.54883,0,13.89356-4.1416,5.34228-4.14551,9.61914-13.76074l.53418-1.33594L424.65359,319.76032h43.01757l40.34571,97.52344,40.6123-97.52344Z"/><path class="cls-3" d="M741.804,403.39021H633.05886a33.83885,33.83885,0,0,0,13.89355,21.10742q10.95264,7.75341,27.25293,7.749a55.15418,55.15418,0,0,0,19.90625-3.33984,48.2314,48.2314,0,0,0,16.16407-10.55469L732.45241,442.4q-20.30859,23.24415-59.31543,23.24512-24.31639,0-43.01757-9.48535A69.50094,69.50094,0,0,1,601.263,429.84138q-10.15722-16.83252-10.15332-38.208a73.46994,73.46994,0,0,1,10.01953-38.07422A70.20273,70.20273,0,0,1,628.64968,327.108q17.49756-9.48193,39.14355-9.48535,21.104,0,38.208,9.084a66.36012,66.36012,0,0,1,26.85254,26.05078q9.75,16.97169,9.75195,39.41016Q742.60573,392.97029,741.804,403.39021Zm-97.52344-46.22364q-9.61964,8.01563-11.75684,21.90918h70.80567q-2.14161-13.626-11.75684-21.77539-9.61816-8.14746-23.51269-8.14941Q653.8948,349.151,644.28054,357.16657Z"/><path class="cls-3" d="M211.57058,555.859a66.228,66.228,0,0,1,25.78418,25.917q9.34863,16.70214,9.35156,38.876,0,22.18065-9.35156,38.876a66.19854,66.19854,0,0,1-25.78418,25.918,73.264,73.264,0,0,1-36.47168,9.21777q-29.65723,0-45.1543-18.70312V692.526H90.13308V494.272h41.68164v69.73633q15.76172-17.36572,43.28418-17.36719A73.25377,73.25377,0,0,1,211.57058,555.859Zm-17.36719,93.7832q10.28321-10.82081,10.28711-28.99023,0-18.167-10.28711-28.98926-10.28906-10.82228-26.31836-10.82129-16.03125,0-26.31738,10.82129-10.28907,10.82079-10.28711,28.98926,0,18.17285,10.28711,28.99023Q151.84939,660.463,167.885,660.46345,183.91628,660.46345,194.20339,649.64216Z"/><path class="cls-3" d="M334.4739,551.98493q12.687-5.34228,29.25683-5.34375v38.47461q-6.95068-.53173-9.35156-.53418-17.90332,0-28.05469,10.01953-10.15722,10.01954-10.15332,30.0586V692.526H274.48952V548.77888H314.301V567.7486A46.34637,46.34637,0,0,1,334.4739,551.98493Z"/><path class="cls-3" d="M414.90066,685.17829a70.48568,70.48568,0,0,1-28.18848-26.31836q-10.15723-16.83252-10.15332-38.208,0-21.37207,10.15332-38.208a70.51036,70.51036,0,0,1,28.18848-26.31739q18.03514-9.48192,40.74609-9.48535,22.70654,0,40.61328,9.48535a70.77349,70.77349,0,0,1,28.05469,26.31739q10.15137,16.834,10.15332,38.208,0,21.37938-10.15332,38.208A70.74854,70.74854,0,0,1,496.26,685.17829q-17.90478,9.4878-40.61328,9.48535Q432.93435,694.66364,414.90066,685.17829Zm67.06445-35.53613q10.28321-10.82081,10.28711-28.99023,0-18.167-10.28711-28.98926-10.28907-10.82228-26.31836-10.82129-16.03125,0-26.45117,10.82129-10.42091,10.82079-10.4209,28.98926,0,18.17285,10.4209,28.99023Q439.615,660.463,455.64675,660.46345,471.678,660.46345,481.96511,649.64216Z"/><path class="cls-3" d="M789.0989,548.77888,736.99734,692.526H696.91823l-32.3291-89.24121L631.18972,692.526H591.11159l-51.834-143.74707H578.554l33.93261,97.25586,35.26953-97.25586h35.26856l34.20019,97.25586,35.002-97.25586Z"/><path class="cls-3" d="M819.82546,690.25446q-17.10206-4.4077-27.25293-11.08789l13.89356-29.9248a87.27343,87.27343,0,0,0,23.24609,10.01953,97.37086,97.37086,0,0,0,26.71875,3.874q26.45069,0,26.45117-13.09277,0-6.1421-7.21387-8.81641-7.21436-2.66893-22.17675-4.543a213.292,213.292,0,0,1-29.12305-6.14454,45.16184,45.16184,0,0,1-19.90625-12.291q-8.41553-8.8169-8.416-25.11621a39.3435,39.3435,0,0,1,7.88184-24.18067q7.87792-10.55127,22.97852-16.43164,15.09228-5.874,35.66992-5.87793a140.06132,140.06132,0,0,1,30.32519,3.33985q15.0923,3.34423,24.98242,9.21777L903.9905,588.857a82.98625,82.98625,0,0,0-41.41406-10.6875q-13.36377,0-20.04,3.74024-6.68115,3.7456-6.67969,9.61914,0,6.68115,7.21484,9.35156,7.2129,2.67335,22.97754,5.07617a246.66239,246.66239,0,0,1,28.85645,6.2793,43.37739,43.37739,0,0,1,19.50488,12.15723q8.27929,8.8169,8.2832,24.58105a37.9554,37.9554,0,0,1-8.01562,23.78027q-8.01562,10.41943-23.37891,16.16407-15.36766,5.74365-36.47168,5.74511A139.60131,139.60131,0,0,1,819.82546,690.25446Z"/></svg>