<svg id="Layer_1" data-name="Layer 1" xmlns="http://www.w3.org/2000/svg" viewBox="0 0 1000 1000"><defs><style>.cls-1{fill:#212529;}.cls-2{opacity:0.35;}.cls-3,.cls-4{fill:#fff;}.cls-4{font-size:350px;font-family:Montserrat-Bold, Montserrat;font-weight:700;}</style></defs><title>Artboard 1</title><circle class="cls-1" cx="500" cy="500" r="500"/><g class="cls-2"><path class="cls-3" d="M736.53,608.69c1.93-42.3,34.58-224.89,23-332.55s-22.1-117.25-50-120.13-120.13,6.74-120.13,6.74v11.52s71.09,6.16,99.94,8.63c2.26.23,4.24,2.23,6,5.81l-103.21,3.17,0,10.1,108.34,4.84c.41,2.33.85,4.83,1.21,7.47l-107,3.26v10.12l109,4.82c.22,2.61.44,5.26.64,8l-108,3.31v10.09l109,5.17c.14,3.13.27,6.24.38,9.49L594.77,272v10.1l111.47,3.65c0,3.55.09,7.11.12,10.72l-111.63,3.39V309.9l111.56,4.29c0,3.25,0,6.48,0,9.77l-111.49,3.41v10.1l111.16,3.33c-.07,3.27-.14,6.52-.22,9.77L594.77,354v10.11L705,368.65c-.17,4.05-.34,8.11-.53,12.09l-109.8,3.33v10.1l108.73,5.2c-.21,3.46-.42,6.91-.64,10.25l-108.07,3.31,0,10.1,106.74,4.61c-.27,3.13-.55,6.15-.82,9.14l-110.19,3.37v10.1l108.07,6.13c-.41,3.24-.81,6.36-1.23,9.22L586.92,469v10.1l106.92,4.65c-1.44,5.36-2.92,8.46-4.41,8.65-15.38,1.92-103.8,5.56-103.8,5.56s-.47,4.32-.72,9.35c22.62,8.13,82.84,27.42,84.33,68.74,1.92,52.85-49,225.85-50,270.05s102.84,47.08,123-7.69C757.66,799,734.61,651,736.53,608.69Zm-59,236.41a18.76,18.76,0,1,1,18.76-18.76A18.75,18.75,0,0,1,677.55,845.1Z"/><path class="cls-3" d="M446,475.16l75.59-141.63a65.89,65.89,0,0,0,9.33-2.41c33.52-11.58,54.77-49.18,50.52-89.41-2.39-22.35-12.1-42.63-27.37-57.11-15.8-15-35.58-22-55.72-19.9A65.06,65.06,0,0,0,483.77,168l0,0c-25.64,8.89-44,33-49.4,61.85a18,18,0,0,0-5.27.95,18.93,18.93,0,0,0,5.84,36.84c3.88,18.28,12.8,34.7,25.71,46.9a74.47,74.47,0,0,0,27,16.6L404.25,463.26ZM476.26,298c-11.39-10.77-18.59-26-20.42-43-3.11-29.78,11.72-57.39,35.35-65.52a43.06,43.06,0,0,1,9.59-2.13c13.43-1.43,26.77,3.47,37.68,13.78,11.37,10.79,18.6,26,20.38,43,3.17,29.8-11.69,57.41-35.33,65.55a42.27,42.27,0,0,1-9.59,2.13C500.51,313.17,487.15,308.28,476.26,298Z"/><polygon class="cls-3" points="361.37 531.33 338.48 851.88 346.93 871.48 392.59 661.92 362.36 529.71 361.37 531.33"/><path class="cls-3" d="M228.06,213.28a97,97,0,0,0-9.13,30.59c-5.05,40.15,15.49,78.17,48.79,90.4a61.55,61.55,0,0,0,9.27,2.56l95.28,179.24,83,362.73,3.34-29.41-26.1-363.88L392.82,474.2,318.66,332.14A75.61,75.61,0,0,0,338.4,319c15.6-14.18,25.67-34.3,28.48-56.57C372,222.3,351.4,184.25,318.11,172a65.27,65.27,0,0,0-14.56-3.52,66.5,66.5,0,0,0-32.74,4.23c-30.07,1-48.33-32.57-54.71-38.12s-24,.55-22.83,5.75C194.31,145.29,236.39,185.76,228.06,213.28ZM400.39,501A11.9,11.9,0,1,1,390,514.31,11.9,11.9,0,0,1,400.39,501ZM241.49,246.68c2.15-16.9,9.68-32,21.26-42.55,11.07-10.11,24.53-14.75,37.93-13.06a41.63,41.63,0,0,1,9.55,2.32C333.7,202,348,229.86,344.29,259.6c-2.13,16.91-9.68,32-21.23,42.59-11.08,10.09-24.58,14.74-37.95,13.05a44.67,44.67,0,0,1-9.55-2.32C252.12,304.31,237.79,276.45,241.49,246.68Z"/></g><text class="cls-4" transform="translate(121.53 625)">Hair</text></svg>