<svg id="Layer_1" data-name="Layer 1" xmlns="http://www.w3.org/2000/svg" viewBox="0 0 1000 1000"><defs><style>.cls-1{fill:#212529;}.cls-2{opacity:0.35;}.cls-3,.cls-4{fill:#fff;}.cls-4{font-size:350px;font-family:Montserrat-Bold, Montserrat;font-weight:700;}</style></defs><title>Category icons</title><circle class="cls-1" cx="500" cy="500" r="500"/><g class="cls-2"><path class="cls-3" d="M736.53167,608.68989c1.92343-42.30262,34.58268-224.88558,23.01588-332.54595-11.52758-107.64728-22.1-117.2514-49.97021-120.13-27.85719-2.86553-120.13,6.73859-120.13,6.73859V174.267s71.0888,6.16286,99.94042,8.63586c2.26363.22243,4.23942,2.22439,5.99277,5.80958l-103.21159,3.16649.02616,10.10132,108.34076,4.84133c.41873,2.32909.85051,4.82825,1.21688,7.47134L594.75968,217.551l.01308,10.11441L703.807,232.49361c.22244,2.60384.44486,5.26.64114,8.02088L596.46067,243.8249l-.01308,10.08825,109.00809,5.16843c.14393,3.12723.27478,6.24138.37947,9.48637L594.77278,271.97v10.10133l111.468,3.65062c.03923,3.54592.09158,7.10495.11775,10.71631l-111.625,3.38892V309.9023l111.55958,4.29176c-.02615,3.245-.01309,6.4769-.05233,9.76114L594.7466,327.37028V337.4716l111.167,3.32351c-.07851,3.27116-.14394,6.52923-.22244,9.77422l-110.91843,3.41509v10.10133L705.037,368.65229c-.17012,4.04314-.34022,8.11246-.5234,12.0902L594.70733,384.066v10.10133l108.7333,5.20768c-.20935,3.45435-.4187,6.90871-.64114,10.24528l-108.066,3.31041-.02617,10.10134,106.74445,4.60581c-.27476,3.12723-.54954,6.14978-.82432,9.14616l-110.18571,3.36275v10.10133l108.066,6.13669c-.40563,3.2319-.81125,6.35913-1.23,9.21159L586.922,468.9722v10.10133l106.91453,4.645c-1.4393,5.36469-2.91786,8.46575-4.40952,8.64894-15.37444,1.92344-103.80038,5.561-103.80038,5.561s-.47106,4.31793-.71966,9.35551c22.62333,8.12554,82.8388,27.4123,84.33045,68.73356,1.92346,52.84882-49.02808,225.85381-49.9702,270.05373s102.84519,47.07852,123.02169-7.69375C757.66334,798.9797,734.60823,650.96631,736.53167,608.68989ZM677.54614,845.103a18.75682,18.75682,0,1,1,18.76336-18.76336A18.75179,18.75179,0,0,1,677.54614,845.103Z"/><path class="cls-3" d="M446.0398,475.161,521.62773,333.5273a65.98785,65.98785,0,0,0,9.32758-2.404c33.52364-11.583,54.77787-49.18552,50.52538-89.41649-2.38741-22.34979-12.09934-42.625-27.37256-57.105-15.80195-14.96512-35.57967-22.03825-55.72083-19.90579a65.30822,65.30822,0,0,0-14.62214,3.257l-.0326-.02445c-25.64569,8.89138-44.04049,33.00586-49.40488,61.85114a17.88018,17.88018,0,0,0-5.26656.95153,18.92814,18.92814,0,0,0,5.83613,36.84329c3.88241,18.27114,12.79919,34.69252,25.71508,46.9a74.39776,74.39776,0,0,0,27.00544,16.592L404.25148,463.26005Zm30.22288-177.17482c-11.3882-10.763-18.593-26.018-20.42117-42.99451-3.11341-29.78355,11.71742-57.38768,35.35121-65.52446a43.158,43.158,0,0,1,9.58806-2.13117c13.42887-1.42352,26.77148,3.47272,37.682,13.78889,11.36907,10.78848,18.59729,26.04774,20.37582,42.98708,3.17436,29.80267-11.69085,57.40539-35.331,65.55069a42.32164,42.32164,0,0,1-9.58274,2.12408C500.51048,313.17023,487.14731,308.28072,476.26268,297.98615Z"/><polygon class="cls-3" points="361.373 531.325 338.479 851.877 346.926 871.477 392.588 661.917 362.362 529.713 361.373 531.325"/><path class="cls-3" d="M228.063,213.27752a96.98546,96.98546,0,0,0-9.13486,30.59535c-5.04838,40.14818,15.49568,78.168,48.78715,90.39638a60.70623,60.70623,0,0,0,9.27807,2.56147L372.27,516.06883l82.97287,362.7279,3.33216-29.41028L432.47566,485.50939l-39.65512-11.31112L318.65732,332.138a75.62853,75.62853,0,0,0,19.74548-13.16071c15.596-14.17731,25.66544-34.29476,28.48122-56.56954,5.07073-40.10705-15.48005-78.15631-48.77157-90.3847a65.399,65.399,0,0,0-14.55823-3.52021,66.576,66.576,0,0,0-32.74684,4.22421c-30.07.95866-48.32355-32.56438-54.71221-38.11678-6.50627-5.66718-23.9647.54533-22.82114,5.74771C194.30878,145.28614,236.38876,185.76042,228.063,213.27752ZM400.39454,501.03079A11.89948,11.89948,0,1,1,390.035,514.31154,11.90182,11.90182,0,0,1,400.39454,501.03079ZM241.49069,246.683c2.15114-16.90249,9.67686-32.00925,21.25629-42.55489,11.071-10.10977,24.53575-14.75285,37.93013-13.06206a41.97218,41.97218,0,0,1,9.55478,2.32828c23.46479,8.60888,37.79737,36.46347,34.062,66.20474-2.13165,16.9149-9.68323,32.01775-21.23536,42.59494-11.07633,10.08137-24.57434,14.73941-37.94574,13.05034a44.89719,44.89719,0,0,1-9.55622-2.32933C252.12327,304.30539,237.78968,276.45225,241.49069,246.683Z"/></g><text class="cls-4" transform="translate(121.52861 625.00001)">Hair</text></svg>