<svg id="Layer_1" data-name="Layer 1" xmlns="http://www.w3.org/2000/svg" viewBox="0 0 1000 1000"><defs><style>.cls-1{fill:#212529;}.cls-2{opacity:0.35;}.cls-3,.cls-4{fill:#fff;}.cls-4{font-size:300px;font-family:Montserrat-Bold, Montserrat;font-weight:700;}.cls-5{font-size:200px;}.cls-6{letter-spacing:0.01em;}.cls-7{letter-spacing:-0.02em;}.cls-8{letter-spacing:-0.02em;}.cls-9{letter-spacing:0em;}</style></defs><title>Artboard 1 copy 5</title><circle class="cls-1" cx="500" cy="500" r="500"/><g class="cls-2"><path class="cls-3" d="M194.53,580.38V787.07A57.48,57.48,0,0,0,252,844.48H642.36a57.47,57.47,0,0,0,57.41-57.41V580.38A57.41,57.41,0,0,0,671,530.64a34.29,34.29,0,0,0,5.83-19.16V465.55a34.5,34.5,0,0,0-34.45-34.45H252a34.49,34.49,0,0,0-34.45,34.45v45.93a34.21,34.21,0,0,0,5.83,19.16A57.44,57.44,0,0,0,194.53,580.38Zm45.93-68.9V500h91.87a11.49,11.49,0,0,0,0-23H240.46V465.55A11.5,11.5,0,0,1,252,454.07H642.36a11.49,11.49,0,0,1,11.48,11.48V477H573.46a11.49,11.49,0,0,0,0,23h80.38v11.48A11.5,11.5,0,0,1,642.36,523H252A11.51,11.51,0,0,1,240.46,511.48Zm-23,68.9A34.48,34.48,0,0,1,252,545.93H642.36a34.48,34.48,0,0,1,34.45,34.45V787.07a34.48,34.48,0,0,1-34.45,34.45H252a34.48,34.48,0,0,1-34.45-34.45Z"/><path class="cls-3" d="M527.53,408.14a46,46,0,0,0,45.93-45.93V270.34H814.6a45.93,45.93,0,0,0,0-91.86H550.5v1.19c-.2-.2-.38-.41-.58-.6a79.75,79.75,0,0,0-56.84-23.55H424.19a80.47,80.47,0,0,0-80.38,80.38v80.38a45.93,45.93,0,0,0,91.86,0V304.79a23,23,0,0,1,45.93,0v57.42A46,46,0,0,0,527.53,408.14ZM814.6,201.45a23,23,0,1,1,0,45.93H573.46V235.9a80.14,80.14,0,0,0-7.7-34.45Zm-356,57.41a46,46,0,0,0-45.94,45.93v11.49a23,23,0,0,1-45.93,0V235.9a57.49,57.49,0,0,1,57.42-57.42h68.89A57.42,57.42,0,0,1,550.5,235.9V362.21a23,23,0,0,1-45.93,0V304.79A45.94,45.94,0,0,0,458.64,258.86Z"/><path class="cls-3" d="M527.53,477H378.26a11.49,11.49,0,1,0,0,23H527.53a11.49,11.49,0,0,0,0-23Z"/><path class="cls-3" d="M252,798.55H642.36a11.48,11.48,0,0,0,11.48-11.48V580.38a11.48,11.48,0,0,0-11.48-11.48H252a11.48,11.48,0,0,0-11.49,11.48V787.07A11.48,11.48,0,0,0,252,798.55Zm11.48-206.69H630.88V775.59H263.43Z"/><path class="cls-3" d="M516.05,614.83H378.26a11.48,11.48,0,0,0-11.49,11.48v68.9a11.48,11.48,0,0,0,11.49,11.48H516.05a11.48,11.48,0,0,0,11.48-11.48v-68.9A11.48,11.48,0,0,0,516.05,614.83Zm-11.48,68.89H389.74V637.79H504.57Z"/><path class="cls-3" d="M516.05,729.66H378.26a11.48,11.48,0,1,0,0,23H516.05a11.48,11.48,0,0,0,0-23Z"/></g><text class="cls-4" transform="translate(192.63 518.47) scale(0.95 1)">Hair<tspan class="cls-5"><tspan x="-132.35" y="180">Re</tspan><tspan class="cls-6" x="140.85" y="180">m</tspan><tspan class="cls-7" x="351.85" y="180">o</tspan><tspan class="cls-8" x="479.85" y="180">v</tspan><tspan class="cls-9" x="595.85" y="180">al</tspan></tspan></text></svg>