<svg id="Layer_1" data-name="Layer 1" xmlns="http://www.w3.org/2000/svg" viewBox="0 0 1000 1000"><defs><style>.cls-1{fill:#212529;}.cls-2{opacity:0.35;}.cls-3{fill:#fff;}</style></defs><title>Category icons</title><circle class="cls-1" cx="500" cy="500" r="500"/><g class="cls-2"><path class="cls-3" d="M194.53191,580.37948V787.06914a57.47839,57.47839,0,0,0,57.4138,57.41379H642.3595a57.47839,57.47839,0,0,0,57.41379-57.41379V580.37948a57.43532,57.43532,0,0,0-28.7973-49.74187,34.25163,34.25163,0,0,0,5.83179-19.15468v-45.931a34.48847,34.48847,0,0,0-34.44828-34.44828H251.94571a34.487,34.487,0,0,0-34.44828,34.44828v45.931a34.25446,34.25446,0,0,0,5.83181,19.15468A57.43533,57.43533,0,0,0,194.53191,580.37948Zm45.931-68.89655V500.00017H332.325a11.48276,11.48276,0,0,0,0-22.96552H240.463V465.5519a11.49566,11.49566,0,0,1,11.48276-11.48276H642.3595a11.49567,11.49567,0,0,1,11.48276,11.48276v11.48275H573.463a11.48276,11.48276,0,1,0,0,22.96552h80.37931v11.48276a11.49569,11.49569,0,0,1-11.48276,11.48276H251.94571A11.49569,11.49569,0,0,1,240.463,511.48293Zm-22.96552,68.89655a34.48847,34.48847,0,0,1,34.44828-34.44827H642.3595a34.48848,34.48848,0,0,1,34.44828,34.44827V787.06914a34.48848,34.48848,0,0,1-34.44828,34.44827H251.94571a34.48847,34.48847,0,0,1-34.44828-34.44827Z"/><path class="cls-3" d="M527.53191,408.1381a45.9827,45.9827,0,0,0,45.931-45.931V270.345H814.60088a45.931,45.931,0,0,0,0-91.86207H550.49743v1.187c-.19519-.19951-.37749-.4062-.57413-.60284a79.80522,79.80522,0,0,0-56.83966-23.54971H424.18709a80.46972,80.46972,0,0,0-80.37931,80.37931V316.276a45.931,45.931,0,1,0,91.86207,0V304.79327a22.96551,22.96551,0,0,1,45.931,0v57.4138A45.9827,45.9827,0,0,0,527.53191,408.1381Zm287.069-206.68965a22.96551,22.96551,0,1,1,0,45.931H573.463V235.89672a80.09214,80.09214,0,0,0-7.7078-34.44827ZM458.63536,258.86224a45.9827,45.9827,0,0,0-45.931,45.931V316.276a22.96552,22.96552,0,0,1-45.931,0V235.89672a57.47838,57.47838,0,0,1,57.4138-57.41379h68.89655a57.4138,57.4138,0,0,1,57.41379,57.41379V362.20707a22.96552,22.96552,0,1,1-45.931,0v-57.4138A45.931,45.931,0,0,0,458.63536,258.86224Z"/><path class="cls-3" d="M527.53191,477.03465H378.25605a11.48276,11.48276,0,0,0,0,22.96552H527.53191a11.48276,11.48276,0,1,0,0-22.96552Z"/><path class="cls-3" d="M251.94571,798.5519H642.3595a11.48277,11.48277,0,0,0,11.48276-11.48276V580.37948a11.48277,11.48277,0,0,0-11.48276-11.48276H251.94571A11.48277,11.48277,0,0,0,240.463,580.37948V787.06914A11.48277,11.48277,0,0,0,251.94571,798.5519Zm11.48276-206.68966H630.87674V775.58638H263.42847Z"/><path class="cls-3" d="M516.04916,614.82776H378.25605a11.48277,11.48277,0,0,0-11.48276,11.48276v68.89655a11.48278,11.48278,0,0,0,11.48276,11.48276H516.04916a11.48277,11.48277,0,0,0,11.48275-11.48276V626.31052A11.48276,11.48276,0,0,0,516.04916,614.82776ZM504.5664,683.72431H389.73881v-45.931H504.5664Z"/><path class="cls-3" d="M516.04916,729.65534H378.25605a11.48276,11.48276,0,0,0,0,22.96552H516.04916a11.48276,11.48276,0,0,0,0-22.96552Z"/></g><path class="cls-3" d="M399.25509,308.47126v210H353.08517V432.37165H262.45528v86.09961H216.28536v-210h46.16992v82.79981h90.62989V308.47126Z"/><path class="cls-3" d="M559.99435,372.52107q19.09131,17.852,19.09472,53.85058v92.09961H537.4797V498.37165q-12.54492,22.5-46.74024,22.5-17.6748,0-30.63769-6.30078a46.32828,46.32828,0,0,1-19.80762-17.39941,47.0439,47.0439,0,0,1-6.83984-25.2002q0-22.5,16.10254-35.40039,16.09863-12.895,49.73242-12.89941h35.33984q0-15.3003-8.835-23.54981-8.8374-8.24853-26.50488-8.25a73.83738,73.83738,0,0,0-24.082,4.04981,62.66253,62.66253,0,0,0-20.09278,10.95019l-15.96-32.70019a94.226,94.226,0,0,1,30.06739-14.40039,128.424,128.424,0,0,1,36.05273-5.09961Q540.89669,354.67146,559.99435,372.52107Zm-37.90528,111.2998a30.11885,30.11885,0,0,0,12.54-16.34961v-16.5H504.134q-27.35887,0-27.35937,18.90039a17.134,17.134,0,0,0,6.69727,14.25q6.69287,5.25147,18.38281,5.25A37.218,37.218,0,0,0,522.08907,483.82087Z"/><path class="cls-3" d="M621.551,327.07087a26.32769,26.32769,0,0,1,0-37.19922q7.69482-7.49561,19.95019-7.5,12.25049,0,19.9502,7.19922a23.62912,23.62912,0,0,1,7.69433,18q0,11.70117-7.69433,19.35059-7.69483,7.64941-19.9502,7.64941Q629.24338,334.57087,621.551,327.07087Zm-2.28028,30h44.46094V518.47126H619.27071Z"/><path class="cls-3" d="M769.03829,360.67146q13.53224-5.99855,31.207-6v43.20019q-7.415-.59766-9.97461-.60058-19.09716,0-29.92578,11.25-10.834,11.25-10.8291,33.75v76.20019H705.05489V357.07087h42.46582v21.30078A49.89685,49.89685,0,0,1,769.03829,360.67146Z"/><path class="cls-3" d="M167.40841,698.47126l-25.64942-39H113.44845v39H82.66817v-140h57.57032q17.6704,0,30.68554,6.2002A46.27529,46.27529,0,0,1,190.969,582.27107q7.02685,11.40087,7.02929,27,0,15.60059-7.125,26.90039a45.71987,45.71987,0,0,1-20.23437,17.2998l29.83008,45Zm-7.79-107.2998q-7.22314-6.3003-21.08984-6.29981H113.44845v48.79981h25.08008q13.86767,0,21.08984-6.40039,7.21875-6.39845,7.2207-18Q166.83907,597.47321,159.61837,591.17146Z"/><path class="cls-3" d="M319.78634,653.47126H242.45626a25.44959,25.44959,0,0,0,9.87988,15.79981q7.78859,5.80371,19.37989,5.7998a37.44506,37.44506,0,0,0,14.15527-2.5,34.18026,34.18026,0,0,0,11.49512-7.89941l15.76953,18q-14.44189,17.39941-42.17969,17.39941-17.291,0-30.58984-7.09961a50.46051,50.46051,0,0,1-20.52051-19.70019,56.45558,56.45558,0,0,1-7.21973-28.59961,57.24569,57.24569,0,0,1,7.125-28.5,51.163,51.163,0,0,1,19.57031-19.79981,57.89678,57.89678,0,0,1,55.00489-.30078,48.401,48.401,0,0,1,19.09472,19.5q6.9331,12.70313,6.93457,29.5Q320.35567,645.67146,319.78634,653.47126Zm-69.35059-34.59961q-6.83936,6-8.35937,16.39942H292.426q-1.52344-10.19971-8.36035-16.29981a24.2301,24.2301,0,0,0-16.71973-6.09961A24.72413,24.72413,0,0,0,250.43575,618.87165Z"/><path class="cls-3" d="M501.51974,601.17146q11.30272,11.90186,11.30468,35.70019v61.59961H483.18478v-56.7998q0-12.79687-5.03516-19.10059-5.03613-6.29883-14.34473-6.2998-10.45165,0-16.53027,7.10058-6.082,7.10157-6.08008,21.09961v54H411.55489v-56.7998q0-25.39746-19.37988-25.40039-10.25976,0-16.33984,7.10058-6.08351,7.10157-6.08008,21.09961v54H340.11446V590.87165H368.425v12.39942a37.51269,37.51269,0,0,1,13.96484-10.39942,44.93977,44.93977,0,0,1,18.14454-3.60058,42.118,42.118,0,0,1,19.57031,4.5,35.33362,35.33362,0,0,1,14.06054,13.10058,42.31052,42.31052,0,0,1,15.86426-13,47.92761,47.92761,0,0,1,20.99512-4.60058Q490.21408,589.27107,501.51974,601.17146Z"/><path class="cls-3" d="M560.22872,692.97126a51.264,51.264,0,0,1-20.04492-19.70019,60.25781,60.25781,0,0,1,0-57.2002,51.28789,51.28789,0,0,1,20.04492-19.69922,62.47589,62.47589,0,0,1,57.85547,0,51.49956,51.49956,0,0,1,19.9502,19.69922,60.25788,60.25788,0,0,1,0,57.2002,51.47538,51.47538,0,0,1-19.9502,19.70019,62.48345,62.48345,0,0,1-57.85547,0Zm47.69043-26.59961q7.3125-8.10059,7.31445-21.70019,0-13.59814-7.31445-21.7002a24.089,24.089,0,0,0-18.71484-8.09961,24.37971,24.37971,0,0,0-18.81055,8.09961q-7.40918,8.10059-7.41016,21.7002,0,13.60254,7.41016,21.70019a24.383,24.383,0,0,0,18.81055,8.09961A24.0922,24.0922,0,0,0,607.91915,666.37165Z"/><path class="cls-3" d="M763.62325,590.87165,720.49337,698.47126H689.90353L646.96407,590.87165h30.58985l28.30957,73.19922,29.25976-73.19922Z"/><path class="cls-3" d="M850.07345,601.17146q12.728,11.90186,12.73047,35.89941v61.40039H835.06368V685.07087q-8.36279,15-31.16015,15-11.78321,0-20.42481-4.19922a30.88817,30.88817,0,0,1-13.20508-11.60058,31.35677,31.35677,0,0,1-4.55957-16.79981q0-15,10.73438-23.59961,10.7329-8.59716,33.15527-8.60058h23.56055q0-10.19971-5.89063-15.7002-5.89159-5.49756-17.66992-5.5a49.23541,49.23541,0,0,0-16.05469,2.7002,41.77956,41.77956,0,0,0-13.3955,7.2998l-10.63965-21.7998a62.81991,62.81991,0,0,1,20.04492-9.59961,85.61979,85.61979,0,0,1,24.03516-3.40039Q837.342,589.27107,850.07345,601.17146Zm-25.26953,74.20019a20.08817,20.08817,0,0,0,8.36035-10.90039v-11H812.83419q-18.24024,0-18.24023,12.59961a11.42315,11.42315,0,0,0,4.46484,9.5q4.46191,3.50244,12.25488,3.5A24.81343,24.81343,0,0,0,824.80392,675.37165Z"/><path class="cls-3" d="M889.592,550.07087h29.64063V698.47126H889.592Z"/></svg>