<svg id="Layer_1" data-name="Layer 1" xmlns="http://www.w3.org/2000/svg" viewBox="0 0 1000 1000"><defs><style>.cls-1{fill:#212529;}.cls-2{opacity:0.9;}.cls-3{opacity:0.3;}.cls-4{fill:#fff;}</style></defs><title>Category icons</title><circle class="cls-1" cx="500" cy="500" r="500"/><g class="cls-2"><g class="cls-3"><path class="cls-4" d="M268.86031,183.7784H257.85364a88.15259,88.15259,0,0,0-88.05335,88.05336,10.99367,10.99367,0,0,0,1.10066,4.92l42.99205,85.863,10.94063,448.80794a11.00716,11.00716,0,0,0,11.00667,10.74253h55.03335a11.0071,11.0071,0,0,0,11.00667-10.74253l10.94063-448.808,42.926-85.852a10.99663,10.99663,0,0,0,1.16672-4.931A88.15174,88.15174,0,0,0,268.86031,183.7784Zm11.27083,616.3735H246.58281l-9.12453-374.22676h51.79739ZM289.773,403.9118H236.941l-.80349-33.02h54.483Zm12.10734-68.63759V293.8451H279.867v55.03335h-33.02V271.83176H224.83363v63.44245l-33.02-65.952a66.12744,66.12744,0,0,1,66.04-63.5305h11.00667a66.12743,66.12743,0,0,1,66.04,63.5305Z"/></g><g class="cls-3"><path class="cls-4" d="M664.38634,746.3293c.20914-.24214.49528-.40724.69342-.64938,29.21169-35.90376-2.28939-108.27263-71.71945-164.74781s-146.68724-72.589-175.91-36.67427,2.30039,108.27262,71.71945,164.74781a298.53428,298.53428,0,0,0,55.89185,36.11286H362.417a11.00716,11.00716,0,0,0-11.00667,11.00667v55.03335A11.00716,11.00716,0,0,0,362.417,822.1652H466.98036V800.15186H373.42367v-33.02H648.59041v33.02h-115.57V822.1652h126.5767a11.00716,11.00716,0,0,0,11.00667-11.00667V756.12518A10.94087,10.94087,0,0,0,664.38634,746.3293Zm-16.444-14.53985c-9.11351,11.21581-29.0136,14.12157-54.58207,8.02387a237.38164,237.38164,0,0,1-90.2877-47.89c-62.89212-51.159-86.60048-111.56362-68.52752-133.77506a37.95949,37.95949,0,0,1,30.41143-10.91862c28.99158,0,71.99461,16.19082,114.46936,50.77376C642.31661,649.17343,666.014,709.578,647.94238,731.78945Z"/></g><g class="cls-3"><rect class="cls-4" x="488.9937" y="800.1519" width="22.01334" height="22.01334"/></g><g class="cls-3"><path class="cls-4" d="M632.08041,708.79655c-1.33179-14.78194-16.93928-53.38233-66.4803-93.67778-41.82533-33.99961-80.34868-46.10693-100.634-46.10693a44.53665,44.53665,0,0,0-4.63381.22014,11.00719,11.00719,0,0,0-9.862,11.88722c1.34281,14.793,16.95028,53.40438,66.48029,93.68879,41.82534,34.01061,80.34868,46.07392,100.612,46.07392a42.01834,42.01834,0,0,0,4.61178-.17609A11.00533,11.00533,0,0,0,632.08041,708.79655Zm-101.26-51.02693h0a191.15654,191.15654,0,0,1-54.28488-65.3466,192.844,192.844,0,0,1,75.13153,39.73408A191.16105,191.16105,0,0,1,605.941,697.5147,192.60274,192.60274,0,0,1,530.82042,657.76962Z"/></g><g class="cls-3"><path class="cls-4" d="M819.19379,580.01851V469.95182a11.00716,11.00716,0,0,0-11.00667-11.00667V391.023a33.01991,33.01991,0,0,0-56.36518-23.35617L729.8086,389.68016a32.77918,32.77918,0,0,0-9.67488,23.35615v45.90882a11.00716,11.00716,0,0,0-11.00667,11.00667V580.01847a11.00716,11.00716,0,0,0-11.00667,11.00667V790.9833a33.01971,33.01971,0,0,0,33.02,33.02h66.04a33.01971,33.01971,0,0,0,33.02-33.02V591.02518A11.00621,11.00621,0,0,0,819.19379,580.01851ZM742.1471,413.03633a11.00787,11.00787,0,0,1,3.22495-7.79272l22.01334-22.01334a11.00668,11.00668,0,0,1,18.78839,7.79272v67.92216H742.1471Zm-11.00667,67.92216h66.04v99.06h-66.04Zm77.04669,310.02486A11.00716,11.00716,0,0,1,797.18045,801.99h-66.04a11.00716,11.00716,0,0,1-11.00667-11.00666V602.03185h88.05336Z"/></g><g class="cls-3"><polygon class="cls-4" points="793.956 191.56 778.392 175.997 769.664 184.725 760.935 175.997 745.372 191.56 754.1 200.288 745.372 209.017 760.935 224.58 769.664 215.852 778.392 224.58 793.956 209.017 785.229 200.288 793.956 191.56"/></g><g class="cls-3"><polygon class="cls-4" points="430.735 389.68 415.172 374.117 406.444 382.845 397.715 374.117 382.152 389.68 390.88 398.408 382.152 407.137 397.715 422.7 406.444 413.972 415.172 422.7 430.735 407.137 422.008 398.408 430.735 389.68"/></g><g class="cls-3"><polygon class="cls-4" points="672.882 532.767 657.319 517.203 648.59 525.932 639.862 517.203 624.299 532.767 633.027 541.495 624.299 550.223 639.862 565.787 648.59 557.059 657.319 565.787 672.882 550.223 664.155 541.495 672.882 532.767"/></g><g class="cls-3"><polygon class="cls-4" points="628.855 367.667 613.292 352.103 599.06 366.335 584.829 352.103 569.265 367.667 583.497 381.898 569.265 396.13 584.829 411.694 599.06 397.462 613.292 411.694 628.855 396.13 614.625 381.898 628.855 367.667"/></g><g class="cls-3"><polygon class="cls-4" points="507.782 191.56 492.219 175.997 477.987 190.228 463.755 175.997 448.192 191.56 462.424 205.792 448.192 220.023 463.755 235.587 477.987 221.355 492.219 235.587 507.782 220.023 493.552 205.792 507.782 191.56"/></g><g class="cls-3"><rect class="cls-4" x="764.16044" y="635.05186" width="22.01334" height="99.06003"/></g><g class="cls-3"><rect class="cls-4" x="764.16044" y="756.12522" width="22.01334" height="22.01334"/></g></g><path class="cls-4" d="M290.00561,517.00056l-.2998-126L227.906,494.80036h-21.9004l-61.5-101.09961V517.00056H98.906v-210h40.19921l78.60059,130.5,77.39941-130.5h39.90039l.59961,210Z"/><path class="cls-4" d="M504.80151,371.05036Q524.8977,388.90242,524.9021,424.901v92.09961H481.10132V496.901q-13.20411,22.5-49.19922,22.5-18.605,0-32.25-6.30078-13.65528-6.29883-20.85059-17.39942a45.27556,45.27556,0,0,1-7.20019-25.20019q0-22.5,16.95019-35.40039,16.94532-12.895,52.35059-12.89942h37.19922q0-15.30029-9.29981-23.5498-9.30175-8.24853-27.89941-8.25a81.43953,81.43953,0,0,0-25.35059,4.0498A67.05429,67.05429,0,0,0,394.4021,405.401l-16.80078-32.7002q13.19825-9.29589,31.65039-14.40039a141.8271,141.8271,0,0,1,37.95019-5.09961Q484.699,353.20075,504.80151,371.05036ZM464.9021,482.35017a30.38344,30.38344,0,0,0,13.19922-16.34961v-16.5H446.00171q-28.8003,0-28.79981,18.90039a16.824,16.824,0,0,0,7.04981,14.25q7.04589,5.25147,19.34961,5.25A40.74492,40.74492,0,0,0,464.9021,482.35017Z"/><path class="cls-4" d="M636.49878,453.70075l-22.5,22.2002v41.09961H567.198V294.401h46.80078v126l68.39941-64.80078H738.198l-67.19922,68.40039,73.19922,93H687.49878Z"/><path class="cls-4" d="M915.49585,449.50056H793.39624a37.99608,37.99608,0,0,0,15.59961,23.70019q12.29736,8.70411,30.60058,8.7002a61.90657,61.90657,0,0,0,22.34961-3.75,54.16062,54.16062,0,0,0,18.15039-11.85059l24.89942,27Q882.1941,519.40095,838.39624,519.401q-27.30323,0-48.29981-10.65039-21.00293-10.645-32.40039-29.54981-11.40527-18.90087-11.40039-42.90039,0-23.69531,11.25-42.75A78.82782,78.82782,0,0,1,788.446,363.85017q19.645-10.645,43.9502-10.64942,23.6953,0,42.89941,10.2002a74.4959,74.4959,0,0,1,30.15039,29.25q10.94824,19.05468,10.9502,44.25Q916.39624,437.80037,915.49585,449.50056Zm-109.5-51.90039q-10.8003,9-13.2002,24.60058h79.5q-2.40381-15.30029-13.19922-24.45019-10.80029-9.14794-26.40039-9.15039Q816.79078,388.60017,805.99585,397.60017Z"/><path class="cls-4" d="M477.65308,628.01716V789.41755h-44.4004v-19.2002a62.04368,62.04368,0,0,1-22.20019,16.04981,69.86222,69.86222,0,0,1-27.89941,5.55078q-31.80322,0-50.4004-18.30078-18.605-18.29443-18.5996-54.29981V628.01716h46.7998v84.30078q0,39.00147,32.7002,39,16.79736,0,27-10.95019,10.19531-10.94824,10.20019-32.54981V628.01716Z"/><path class="cls-4" d="M657.50171,635.96735a74.36922,74.36922,0,0,1,28.95019,29.10059q10.49707,18.75147,10.5,43.64941,0,24.90528-10.5,43.6504a74.33466,74.33466,0,0,1-28.95019,29.0996,82.24807,82.24807,0,0,1-40.9502,10.35059q-30.90234,0-48.59961-19.5v75.29981H521.15112V628.01716h44.7002v18.60059q17.395-20.9956,50.70019-21A82.25773,82.25773,0,0,1,657.50171,635.96735Zm-19.5,105.29981q11.54444-12.14941,11.5498-32.54981,0-20.39794-11.5498-32.5498-11.55322-12.14941-29.54981-12.15039-18,0-29.55078,12.15039-11.55176,12.14941-11.5498,32.5498,0,20.40528,11.5498,32.54981Q590.447,753.418,608.4519,753.41755,626.4519,753.41755,638.00171,741.26716Z"/></svg>