<svg id="Layer_1" data-name="Layer 1" xmlns="http://www.w3.org/2000/svg" viewBox="0 0 1000 1000"><defs><style>.cls-1{fill:#212529;}.cls-2{opacity:0.9;}.cls-3{opacity:0.3;}.cls-4,.cls-5{fill:#fff;}.cls-5{font-size:300px;font-family:Montserrat-Bold, Montserrat;font-weight:700;}.cls-6{letter-spacing:-0.02em;}</style></defs><title>Artboard 1 copy 3</title><circle class="cls-1" cx="500" cy="500" r="500"/><g class="cls-2"><g class="cls-3"><path class="cls-4" d="M268.86,183.78h-11a88.15,88.15,0,0,0-88.05,88,11,11,0,0,0,1.1,4.92l43,85.86,10.94,448.81a11,11,0,0,0,11,10.75h55a11,11,0,0,0,11-10.75l10.94-448.81,42.93-85.85a11.09,11.09,0,0,0,1.16-4.93A88.14,88.14,0,0,0,268.86,183.78Zm11.27,616.37H246.58l-9.12-374.22h51.8Zm9.64-396.24H236.94l-.8-33h54.48Zm12.11-68.64V293.85h-22v55h-33V271.83h-22v63.44l-33-65.95a66.14,66.14,0,0,1,66-63.53h11a66.12,66.12,0,0,1,66,63.53Z"/></g><g class="cls-3"><path class="cls-4" d="M664.39,746.33c.21-.24.49-.41.69-.65,29.21-35.9-2.29-108.27-71.72-164.75s-146.69-72.59-175.91-36.67,2.3,108.27,71.72,164.75a298.85,298.85,0,0,0,55.89,36.11H362.42a11,11,0,0,0-11,11v55a11,11,0,0,0,11,11H467v-22H373.42v-33H648.59v33H533v22H659.6a11,11,0,0,0,11-11v-55A10.93,10.93,0,0,0,664.39,746.33Zm-16.45-14.54c-9.11,11.22-29,14.12-54.58,8a237.23,237.23,0,0,1-90.29-47.89c-62.89-51.16-86.6-111.56-68.52-133.77A38,38,0,0,1,465,547.23c29,0,72,16.19,114.47,50.77C642.32,649.17,666,709.58,647.94,731.79Z"/></g><g class="cls-3"><rect class="cls-4" x="488.99" y="800.15" width="22.01" height="22.01"/></g><g class="cls-3"><path class="cls-4" d="M632.08,708.8c-1.33-14.79-16.94-53.39-66.48-93.68C523.77,581.12,485.25,569,465,569a44.9,44.9,0,0,0-4.64.22,11,11,0,0,0-9.86,11.89c1.34,14.79,16.95,53.4,66.48,93.69,41.83,34,80.35,46.07,100.61,46.07a43,43,0,0,0,4.61-.17A11,11,0,0,0,632.08,708.8Zm-101.26-51h0a191,191,0,0,1-54.28-65.35,193,193,0,0,1,75.13,39.74,191.19,191.19,0,0,1,54.27,65.35A192.54,192.54,0,0,1,530.82,657.77Z"/></g><g class="cls-3"><path class="cls-4" d="M819.19,580V470a11,11,0,0,0-11-11V391a33,33,0,0,0-56.37-23.35l-22,22A32.81,32.81,0,0,0,720.13,413V459a11,11,0,0,0-11,11V580a11,11,0,0,0-11,11V791a33,33,0,0,0,33,33h66a33,33,0,0,0,33-33V591A11,11,0,0,0,819.19,580Zm-77-167a11,11,0,0,1,3.22-7.8l22-22A11,11,0,0,1,786.17,391V459h-44Zm-11,67.92h66V580h-66Zm77.05,310a11,11,0,0,1-11,11h-66a11,11,0,0,1-11-11V602h88.06Z"/></g><g class="cls-3"><polygon class="cls-4" points="793.96 191.56 778.39 176 769.66 184.72 760.93 176 745.37 191.56 754.1 200.29 745.37 209.02 760.93 224.58 769.66 215.85 778.39 224.58 793.96 209.02 785.23 200.29 793.96 191.56"/></g><g class="cls-3"><polygon class="cls-4" points="430.74 389.68 415.17 374.12 406.44 382.85 397.71 374.12 382.15 389.68 390.88 398.41 382.15 407.14 397.71 422.7 406.44 413.97 415.17 422.7 430.74 407.14 422.01 398.41 430.74 389.68"/></g><g class="cls-3"><polygon class="cls-4" points="672.88 532.77 657.32 517.2 648.59 525.93 639.86 517.2 624.3 532.77 633.03 541.5 624.3 550.22 639.86 565.79 648.59 557.06 657.32 565.79 672.88 550.22 664.15 541.5 672.88 532.77"/></g><g class="cls-3"><polygon class="cls-4" points="628.86 367.67 613.29 352.1 599.06 366.33 584.83 352.1 569.26 367.67 583.5 381.9 569.26 396.13 584.83 411.69 599.06 397.46 613.29 411.69 628.86 396.13 614.63 381.9 628.86 367.67"/></g><g class="cls-3"><polygon class="cls-4" points="507.78 191.56 492.22 176 477.99 190.23 463.75 176 448.19 191.56 462.42 205.79 448.19 220.02 463.75 235.59 477.99 221.35 492.22 235.59 507.78 220.02 493.55 205.79 507.78 191.56"/></g><g class="cls-3"><rect class="cls-4" x="764.16" y="635.05" width="22.01" height="99.06"/></g><g class="cls-3"><rect class="cls-4" x="764.16" y="756.13" width="22.01" height="22.01"/></g></g><text class="cls-5" transform="translate(74.01 517)">Ma<tspan class="cls-6" x="471.59" y="0">k</tspan><tspan x="662.69" y="0">e</tspan><tspan x="219.45" y="272.42">up</tspan></text></svg>