<svg id="Layer_1" data-name="Layer 1" xmlns="http://www.w3.org/2000/svg" viewBox="0 0 1000 1000"><defs><style>.cls-1{fill:#212529;}.cls-2{opacity:0.35;}.cls-3,.cls-4{fill:#fff;}.cls-4{font-size:227.02467px;font-family:Montserrat-Bold, Montserrat;font-weight:700;}.cls-5{letter-spacing:0.00599em;}.cls-6{letter-spacing:0em;}</style></defs><title>Category icons</title><circle class="cls-1" cx="500" cy="500" r="500"/><g class="cls-2"><path class="cls-3" d="M499.986,368.27987A100.63994,100.63994,0,1,0,399.34676,267.64219,100.62873,100.62873,0,0,0,499.986,368.27987Z"/><path class="cls-3" d="M826.48976,459.99443a47.28659,47.28659,0,0,0,3.44354-42.91867L741.13107,202.08034A47.364,47.364,0,0,0,653.58028,238.25l63.87234,154.56811-127.88274,9.59534H410.42152L282.5643,392.81812,346.41114,238.25a47.364,47.364,0,0,0-87.55084-36.16968L170.0596,417.07428A47.35334,47.35334,0,0,0,210.3,482.37806l147.513,11.05377L382.67382,582a224.82714,224.82714,0,0,1-7.70328,144.18353l-35.03533,87.57635A14.03712,14.03712,0,0,0,352.95305,833H647.03681a14.01334,14.01334,0,0,0,13.01788-19.24017l-35.0113-87.57635A224.86052,224.86052,0,0,1,617.3206,582L642.204,493.43183l147.492-11.05377A47.30834,47.30834,0,0,0,826.48976,459.99443ZM500.01145,565.375c17.73522,0,32.11849,21.11422,32.11849,47.15291,0,26.03717-14.38325,47.14993-32.11849,47.14993-17.73824,0-44.93376-35.30844-44.93376-61.3246C455.07769,572.31306,482.27321,565.375,500.01145,565.375Zm0,228.04027c-17.73824,0-32.123-21.11572-32.123-47.15739,0-26.03717,14.38475-47.12589,32.123-47.12589,17.73522,0,41.27717,7.58473,41.27717,33.62191S517.74818,793.41529,500.01145,793.41529Zm0-267.49291c-17.73824,0-32.123-21.08871-32.123-47.1274s14.38475-47.15142,32.123-47.15142c17.73522,0,44.93074,4.23126,44.93074,30.26844C544.94371,487.95369,517.74818,525.92238,500.01145,525.92238Z"/></g><text class="cls-4" transform="translate(36.49926 566.28956) scale(0.89 1)">Mass<tspan class="cls-5" x="597.97337" y="0">a</tspan><tspan class="cls-6" x="739.40595" y="0">ge</tspan></text></svg>