<svg id="Layer_1" data-name="Layer 1" xmlns="http://www.w3.org/2000/svg" viewBox="0 0 1000 1000"><defs><style>.cls-1{fill:#212529;}.cls-2{opacity:0.35;}.cls-3,.cls-4{fill:#fff;}.cls-4{font-size:227.02px;font-family:Montserrat-Bold, Montserrat;font-weight:700;}.cls-5{letter-spacing:0.01em;}.cls-6{letter-spacing:0em;}</style></defs><title>Artboard 1 copy 6</title><circle class="cls-1" cx="500" cy="500" r="500"/><g class="cls-2"><path class="cls-3" d="M500,368.28A100.64,100.64,0,1,0,399.35,267.64,100.63,100.63,0,0,0,500,368.28Z"/><path class="cls-3" d="M826.49,460a47.24,47.24,0,0,0,3.44-42.91l-88.8-215a47.36,47.36,0,0,0-87.55,36.17l63.87,154.57-127.88,9.59H410.42l-127.86-9.59,63.85-154.57a47.36,47.36,0,0,0-87.55-36.17l-88.8,215a47.36,47.36,0,0,0,40.24,65.31l147.51,11.05L382.67,582A224.79,224.79,0,0,1,375,726.18l-35,87.58A14,14,0,0,0,353,833H647a14,14,0,0,0,13-19.24l-35-87.58A224.92,224.92,0,0,1,617.32,582l24.88-88.57,147.5-11.05A47.3,47.3,0,0,0,826.49,460ZM500,565.38c17.74,0,32.12,21.11,32.12,47.15S517.75,659.68,500,659.68s-44.93-35.31-44.93-61.33S482.27,565.38,500,565.38Zm0,228c-17.74,0-32.12-21.12-32.12-47.16s14.38-47.13,32.12-47.13,41.28,7.59,41.28,33.62S517.75,793.42,500,793.42Zm0-267.5c-17.74,0-32.12-21.09-32.12-47.13s14.38-47.15,32.12-47.15,44.93,4.23,44.93,30.27S517.75,525.92,500,525.92Z"/></g><text class="cls-4" transform="translate(36.5 566.29) scale(0.89 1)">Mass<tspan class="cls-5" x="597.97" y="0">a</tspan><tspan class="cls-6" x="739.41" y="0">ge</tspan></text></svg>