<svg id="Layer_1" data-name="Layer 1" xmlns="http://www.w3.org/2000/svg" viewBox="0 0 1000 1000"><defs><style>.cls-1{fill:#212529;}.cls-2{opacity:0.35;}.cls-3,.cls-4{fill:#fff;}.cls-4{font-size:350px;font-family:Montserrat-Bold, Montserrat;font-weight:700;}.cls-5{letter-spacing:-0.004em;}.cls-6{letter-spacing:0em;}</style></defs><title>Category icons</title><circle class="cls-1" cx="500" cy="500" r="500"/><g class="cls-2"><path class="cls-3" d="M552.282,685.97825c-19.3114,0-32.04174,7.28331-39.69512,14.15854-10.63312-9.56555-23.99927-14.595-39.23965-14.595-52.05063,0-113.37261,58.30905-115.94432,60.76685a11.29073,11.29073,0,0,0-3.41153,7.91435,11.112,11.112,0,0,0,3.26443,7.97607C403.55569,808.51318,454.34419,832,508.15991,832c92.09215,0,159.00827-68.387,161.77924-71.30509a11.11731,11.11731,0,0,0,3.08888-8.26071,11.37956,11.37956,0,0,0-3.867-7.8859C623.22647,705.62653,583.93466,685.97825,552.282,685.97825Zm-48.46828,37.44134a10.4068,10.4068,0,0,0,9.88345,4.62618,11.17206,11.17206,0,0,0,9.05784-6.0971c.05694-.17083,7.5395-13.86908,29.58867-13.86908,15.786,0,42.77451,7.39716,84.08763,38.656-19.70048,3.179-50.1005,7.48259-71.10107,7.48259-5.7792,0-12.47885-1.03912-19.9045-2.1399-10.47181-1.58476-22.22-3.31661-35.292-3.31661-13.68406,0-25.77383,2.42461-35.5102,4.332-6.74712,1.32854-12.61171,2.51-16.958,2.51a321.30092,321.30092,0,0,1-68.24469-7.65338c20.19394-16.17984,55.1395-40.30723,83.988-40.30723C486.2816,707.70477,496.2457,712.84815,503.81369,723.41959Zm-98.5783,50.19064a339.63043,339.63043,0,0,0,52.36855,4.21817c6.57158,0,13.76471-1.44713,21.33744-2.975,18.40039-3.69625,43.87058-3.75793,63.15823-.83984,8.63556,1.30009,16.49771,2.42931,23.20215,2.42931,16.58314,0,37.82093-2.36763,56.10743-4.94413-26.40491,17.888-66.57924,38.34282-113.23976,38.34282C472.36506,809.78,437.95564,797.30115,405.23539,773.61023ZM848.55776,383.56741a11.07,11.07,0,0,1-.4365,15.64841,11.32747,11.32747,0,0,1-7.65342,3.04616,10.8479,10.8479,0,0,1-8.00449-3.46846l-4.64989-4.91088c1.87892,4.36522,1.52786,9.48015-2.31073,12.70186a11.141,11.141,0,0,1-15.60092-1.41395l-3.52539-4.17545a10.90711,10.90711,0,0,1-1.822,15.41591,10.7609,10.7609,0,0,1-6.842,2.42461,10.91,10.91,0,0,1-8.66876-4.20391l-7.27853-9.14327c-17.33281,7.42089-35.76643,10.21084-53.56423,10.21084-50.73632,0-96.30077-22.5521-97.07893-22.92695a11.07992,11.07992,0,0,1,9.9973-19.77639c1.15775.53616,115.16145,56.71478,169.62721-18.7183a11.10875,11.10875,0,0,1,15.48711-2.48627c3.75793,2.78521,4.50756,7.39718,3.34981,11.68649ZM739.45549,315.64062a11.08888,11.08888,0,1,1-4.45066-21.7265c21.14762-4.37473,64.89482-1.38549,79.48041,40.682a11.08206,11.08206,0,0,1-6.76138,14.11582,10.869,10.869,0,0,1-3.63926.62158,11.06359,11.06359,0,0,1-10.49078-7.42563C781.58,307.37991,741.045,315.30848,739.45549,315.64062Zm141.16772-55.29608a11.06107,11.06107,0,0,1-15.62946,1.12452C780.71159,188.47481,646.13438,300.45721,644.7489,301.615A11.09153,11.09153,0,0,1,630.448,284.657c6.154-5.11491,150.58148-125.25839,249.07434-39.94186A11.12342,11.12342,0,0,1,880.62321,260.34454ZM298.77122,415.723c-17.75511,0-36.16024-2.75674-53.49306-10.21084l-7.34023,9.17646a11.055,11.055,0,0,1-17.33281-13.72676l-3.55387,4.23237a11.15855,11.15855,0,0,1-15.61519,1.41395c-3.85753-3.22173-4.17544-8.30816-2.33919-12.66864l-4.593,4.88241a11.02757,11.02757,0,0,1-15.64365.41753,11.07764,11.07764,0,0,1-.45076-15.64366l18.87963-20.03736c-1.15774-4.28931-.45076-8.925,3.36407-11.715a11.1301,11.1301,0,0,1,15.48708,2.48154c54.60333,75.65134,168.51213,19.245,169.66512,18.73728a11.0735,11.0735,0,1,1,9.99733,19.76216C395.06725,393.17091,349.5028,415.723,298.77122,415.723Zm-6.71866-121.80891a11.0655,11.0655,0,0,1-4.4032,21.68854c-1.75083-.3179-42.28579-7.89062-54.11462,26.21512a11.11663,11.11663,0,0,1-10.47181,7.4541,10.134,10.134,0,0,1-3.6108-.62157,11.00623,11.00623,0,0,1-6.83254-14.08737C227.134,292.52863,270.83374,289.50618,292.05256,293.91412Zm-130.0554-32.44505A11.07869,11.07869,0,1,1,147.497,244.71512c98.57829-85.4304,242.97727,34.79848,249.0791,39.94186a11.08695,11.08695,0,0,1-14.28665,16.958C380.98464,300.45722,246.24611,188.53176,161.99716,261.46907ZM425.98448,627.2137a11.08267,11.08267,0,0,1-.79238-15.60571c1.5895-1.78879,15.5013-17.33281,34.36671-15.8287,7.07925.57413,17.31859,3.95718,25.88773,17.1003.36058,0,15.03631,14.33407,33.50313,13.49426,10.02579-.34636,19.08366-5.14337,27.74768-14.70892.06168-.49344,11.212-17.21892,28.28858-17.21892,10.69006,0,20.07533,6.26789,27.909,18.6329a11.16428,11.16428,0,0,1-3.3783,15.31625,11.0135,11.0135,0,0,1-15.28779-3.40679c-3.34985-5.262-6.78983-8.35089-9.2429-8.35089-3.58232,0-8.78738,5.34266-10.71855,8.35089-13.86908,15.65791-28.60175,23.08352-44.81478,23.54377h-1.48514c-27.60535,0-48.6676-20.74435-49.55012-21.64109-4.40794-6.29639-7.4541-8.72571-10.562-8.95822-5.47551-1.24315-13.46579,5.57992-16.22252,8.60711A11.26474,11.26474,0,0,1,425.98448,627.2137Z"/></g><text class="cls-4" transform="translate(99.95585 602.19724)">S<tspan class="cls-5" x="223.29492" y="0">k</tspan><tspan class="cls-6" x="452.8916" y="0">in</tspan></text></svg>