<svg id="Layer_1" data-name="Layer 1" xmlns="http://www.w3.org/2000/svg" viewBox="0 0 1000 1000"><defs><style>.cls-1{fill:#212529;}.cls-2{opacity:0.35;}.cls-3,.cls-4{fill:#fff;}.cls-4{font-size:350px;font-family:Montserrat-Bold, Montserrat;font-weight:700;}.cls-5{letter-spacing:0em;}.cls-6{letter-spacing:0em;}</style></defs><title>Artboard 1 copy</title><circle class="cls-1" cx="500" cy="500" r="500"/><g class="cls-2"><path class="cls-3" d="M552.28,686c-19.31,0-32,7.28-39.69,14.16-10.64-9.57-24-14.6-39.24-14.6-52.05,0-113.38,58.31-116,60.77a11.3,11.3,0,0,0-3.41,7.91,11.09,11.09,0,0,0,3.27,8c46.3,46.31,97.08,69.8,150.9,69.8,92.09,0,159-68.39,161.78-71.31a11.11,11.11,0,0,0,3.09-8.26,11.36,11.36,0,0,0-3.87-7.88C623.23,705.63,583.93,686,552.28,686Zm-48.47,37.44a10.43,10.43,0,0,0,9.89,4.63,11.18,11.18,0,0,0,9-6.1c.06-.17,7.54-13.87,29.59-13.87,15.79,0,42.78,7.4,84.09,38.66-19.7,3.17-50.1,7.48-71.1,7.48-5.78,0-12.48-1-19.9-2.14-10.48-1.59-22.22-3.32-35.3-3.32-13.68,0-25.77,2.43-35.51,4.33-6.74,1.33-12.61,2.51-16.95,2.51A321.55,321.55,0,0,1,389.42,748c20.19-16.18,55.14-40.31,84-40.31C486.28,707.7,496.25,712.85,503.81,723.42Zm-98.57,50.19a339,339,0,0,0,52.36,4.22c6.58,0,13.77-1.45,21.34-3,18.4-3.69,43.87-3.75,63.16-.84,8.64,1.3,16.5,2.43,23.2,2.43,16.58,0,37.82-2.36,56.11-4.94-26.41,17.89-66.58,38.34-113.24,38.34C472.37,809.78,438,797.3,405.24,773.61Zm443.32-390a11.07,11.07,0,0,1-.44,15.65,11.36,11.36,0,0,1-7.65,3,10.86,10.86,0,0,1-8-3.47l-4.65-4.91c1.88,4.37,1.53,9.48-2.31,12.7a11,11,0,0,1-7,2.55,11.12,11.12,0,0,1-8.56-4L806.38,401a10.91,10.91,0,0,1-1.83,15.41,10.77,10.77,0,0,1-6.84,2.43,10.93,10.93,0,0,1-8.67-4.21l-7.27-9.14C764.43,412.91,746,415.7,728.2,415.7c-50.74,0-96.3-22.55-97.08-22.93a11.08,11.08,0,0,1,10-19.77c1.16.53,115.16,56.71,169.63-18.72a11.11,11.11,0,0,1,15.48-2.49c3.76,2.79,4.51,7.4,3.35,11.69Zm-109.1-67.93A11.09,11.09,0,1,1,735,293.91c21.15-4.37,64.9-1.38,79.49,40.69a11.08,11.08,0,0,1-6.77,14.11,10.75,10.75,0,0,1-3.64.62,11.07,11.07,0,0,1-10.49-7.42C781.58,307.38,741,315.31,739.46,315.64Zm141.16-55.3A11.06,11.06,0,0,1,865,261.47c-84.28-73-218.86,39-220.24,40.14a11.09,11.09,0,0,1-14.3-16.95C636.6,279.54,781,159.4,879.52,244.72A11.11,11.11,0,0,1,880.62,260.34ZM298.77,415.72c-17.75,0-36.16-2.75-53.49-10.21l-7.34,9.18A11.05,11.05,0,0,1,220.61,401l-3.56,4.23a11.15,11.15,0,0,1-15.61,1.42c-3.86-3.22-4.18-8.31-2.34-12.67l-4.6,4.88a11,11,0,0,1-15.64.42,11.07,11.07,0,0,1-.45-15.64l18.88-20c-1.16-4.29-.45-8.93,3.36-11.72a11.13,11.13,0,0,1,15.49,2.49c54.6,75.65,168.51,19.24,169.67,18.73a11.07,11.07,0,1,1,10,19.76C395.07,393.17,349.5,415.72,298.77,415.72Zm-6.72-121.81a11.07,11.07,0,0,1-4.4,21.69c-1.75-.32-42.29-7.89-54.12,26.22a11.1,11.1,0,0,1-10.47,7.45,10.05,10.05,0,0,1-3.61-.62,11,11,0,0,1-6.83-14.09C227.13,292.53,270.83,289.51,292.05,293.91ZM162,261.47a11.08,11.08,0,1,1-14.5-16.75c98.58-85.44,243,34.79,249.08,39.94a11.08,11.08,0,1,1-14.29,16.95C381,300.46,246.25,188.53,162,261.47ZM426,627.21a11.08,11.08,0,0,1-.79-15.6c1.59-1.79,15.5-17.33,34.37-15.83,7.08.57,17.32,4,25.89,17.1.36,0,15,14.33,33.5,13.49,10-.34,19.08-5.14,27.75-14.71.06-.49,11.21-17.21,28.29-17.21,10.69,0,20.07,6.26,27.9,18.63a11.16,11.16,0,0,1-3.37,15.32A11,11,0,0,1,584.23,625c-3.35-5.26-6.79-8.35-9.24-8.35-3.59,0-8.79,5.34-10.72,8.35-13.87,15.66-28.6,23.08-44.82,23.54H518c-27.61,0-48.67-20.74-49.55-21.64-4.41-6.3-7.46-8.72-10.56-9-5.48-1.24-13.47,5.58-16.23,8.61A11.26,11.26,0,0,1,426,627.21Z"/></g><text class="cls-4" transform="translate(99.96 602.2)">S<tspan class="cls-5" x="223.29" y="0">k</tspan><tspan class="cls-6" x="452.89" y="0">in</tspan></text></svg>