<svg id="Layer_1" data-name="Layer 1" xmlns="http://www.w3.org/2000/svg" viewBox="0 0 1000 1000"><defs><style>.cls-1{fill:#212529;}.cls-2{opacity:0.35;}.cls-3,.cls-4{fill:#fff;}.cls-4{font-size:350px;font-family:Montserrat-Bold, Montserrat;font-weight:700;}.cls-5{letter-spacing:-0.01em;}</style></defs><title>Artboard 1 copy 2</title><circle class="cls-1" cx="501" cy="500" r="500"/><g class="cls-2"><path class="cls-3" d="M857.42,709.62H843.75a85.86,85.86,0,0,0-16-135.3,86,86,0,0,0-44.14-159.89H672.92v-86.1A12.31,12.31,0,0,0,660.61,316a12.83,12.83,0,0,0-1.86.14L513,338.58V327.1a61.63,61.63,0,0,0,49.2-60.27c0-53.68-50.64-104.95-52.8-107.1a12.31,12.31,0,0,0-17.4,0c-2.16,2.15-52.8,53.42-52.8,107.1a61.63,61.63,0,0,0,49.2,60.27v15.29L339,365.39a12.3,12.3,0,0,0-10.43,12.14v137a134.11,134.11,0,0,0-30.75-24.67,12.29,12.29,0,0,0-12.3,0,135.9,135.9,0,0,0-66.42,99.45A124.3,124.3,0,0,0,177,587.68a12.29,12.29,0,0,0-9.84,7.38A135.19,135.19,0,0,0,214,758.82H131.72v24.6H161l21.19,42.4a12.31,12.31,0,0,0,11,6.8h467.4a12.3,12.3,0,0,0,12.3-12.3v-36.9h78.5l21.19,42.4a12.29,12.29,0,0,0,11,6.8h49.2a12.3,12.3,0,0,0,12.3-12.3v-36.9h12.3a12.3,12.3,0,0,0,12.3-12.3v-49.2A12.3,12.3,0,0,0,857.42,709.62Zm-12.3-61.5a61.58,61.58,0,0,1-61.5,61.5H562.22a61.5,61.5,0,0,1,0-123h159.9a36.9,36.9,0,0,1,0,73.8h-123a12.3,12.3,0,0,1,0-24.6h86.1v-24.6h-86.1a36.9,36.9,0,0,0,0,73.8h123a61.58,61.58,0,0,0,61.5-61.5A60.91,60.91,0,0,0,771,586.62h12.62A61.58,61.58,0,0,1,845.12,648.12ZM746.72,439a36.9,36.9,0,1,1,0,73.79h-123a12.3,12.3,0,1,1,0-24.6h86.1v-24.6h-86.1a36.9,36.9,0,0,0,0,73.8h123a61.31,61.31,0,0,0,50.13-96.87A61.5,61.5,0,0,1,783.62,562H611.42a61.5,61.5,0,1,1,0-123Zm-282.9-172.2c0-31.45,23.68-64.16,36.9-79.95,13.23,15.78,36.9,48.42,36.9,79.95A36.9,36.9,0,0,1,513,301.46V279.13h-24.6v22.33A36.88,36.88,0,0,1,463.82,266.83ZM291.62,515a111.09,111.09,0,0,1,48.52,81.26,135.58,135.58,0,0,0-48.41,33,136.1,136.1,0,0,0-48.64-32.76A111,111,0,0,1,291.62,515Zm61.7,102.47a110.78,110.78,0,0,1,36.7-6.26c1.93,0,4,.08,6.05.21A110.7,110.7,0,0,1,291.62,758.82q-2.89,0-6.05-.21A110.7,110.7,0,0,1,353.32,617.48Zm-172.4,30.64a110.25,110.25,0,0,1,6.25-36.69c2.1-.13,4.12-.21,6.05-.21a109.57,109.57,0,0,1,83,37.73,133.2,133.2,0,0,0-17.59,104.88A110.7,110.7,0,0,1,180.92,648.12ZM382.42,808H200.82l-12.3-24.6h206.2Zm118.3,0h-90.8l12.3-24.6h29.3v-24.6H369.17A135.1,135.1,0,0,0,416.1,595.07a12.32,12.32,0,0,0-9.84-7.38,129.5,129.5,0,0,0-42,1.48,134.69,134.69,0,0,0-11.9-39.45h.79V388.08l295.2-45.41v71.76h-36.9A86,86,0,0,0,552,562.69a86,86,0,0,0-49.93,146.93H488.42a12.3,12.3,0,0,0-12.3,12.3v49.2a12.3,12.3,0,0,0,12.3,12.3h12.3Zm53.9,0h-29.3v-24.6h41.6Zm93.7,0h-66.2l12.3-24.6h53.9Zm172.2,0h-29.3l-12.3-24.6h41.6Zm24.6-49.2H500.72v-24.6h344.4Z"/><rect class="cls-3" x="377.72" y="414.43" width="24.6" height="98.4"/><rect class="cls-3" x="377.72" y="537.42" width="24.6" height="24.6"/></g><text class="cls-4" transform="translate(162.2 602.2)">S<tspan class="cls-5" x="223.29" y="0">p</tspan><tspan x="461.65" y="0">a</tspan></text></svg>