<svg id="Layer_1" data-name="Layer 1" xmlns="http://www.w3.org/2000/svg" viewBox="0 0 1000 1000"><defs><style>.cls-1{fill:#212529;}.cls-2{opacity:0.35;}.cls-3,.cls-4{fill:#fff;}.cls-4{font-size:350px;font-family:Montserrat-Bold, Montserrat;font-weight:700;}.cls-5{letter-spacing:-0.00899em;}</style></defs><title>Category icons</title><circle class="cls-1" cx="500.99552" cy="500" r="500"/><g class="cls-2"><path class="cls-3" d="M857.41535,709.62221H843.7502a85.84254,85.84254,0,0,0-15.98981-135.2985,86.02127,86.02127,0,0,0-44.14422-159.89823H672.9174v-86.099a12.29943,12.29943,0,0,0-14.16945-12.15227L513.01917,338.5845V327.09642a61.60971,61.60971,0,0,0,49.19946-60.26932c0-53.67661-50.63855-104.94243-52.80331-107.09491a12.3,12.3,0,0,0-17.392,0C489.85854,161.88466,439.22,213.15049,439.22,266.8271a61.60973,61.60973,0,0,0,49.19946,60.26932v15.28873L338.9515,365.38591a12.29885,12.29885,0,0,0-10.43028,12.14V514.55866a134.58149,134.58149,0,0,0-30.74966-24.67354,12.30034,12.30034,0,0,0-12.29986,0,135.89983,135.89983,0,0,0-66.41927,99.45673,124.48145,124.48145,0,0,0-42.06553-1.66051,12.30111,12.30111,0,0,0-9.83989,7.3799,135.18839,135.18839,0,0,0,46.82558,163.76037H131.7234v24.59973h29.29828L182.21434,825.819a12.30191,12.30191,0,0,0,11.00838,6.80185H660.61754a12.30041,12.30041,0,0,0,12.29986-12.29987V783.42134h78.49773L772.60779,825.819a12.30191,12.30191,0,0,0,11.00838,6.80185h49.19946a12.30041,12.30041,0,0,0,12.29986-12.29987V783.42134h12.29986a12.30041,12.30041,0,0,0,12.29987-12.29986V721.922A12.3004,12.3004,0,0,0,857.41535,709.62221Zm-12.29986-61.49932a61.5731,61.5731,0,0,1-61.49932,61.49932H562.21863a61.49932,61.49932,0,1,1,0-122.99864H722.11685a36.89959,36.89959,0,1,1,0,73.79918H599.11822a12.29986,12.29986,0,0,1,0-24.59972h86.099V611.2233h-86.099a36.89959,36.89959,0,0,0,0,73.79918H722.11685a61.57309,61.57309,0,0,0,61.49932-61.49932,60.85875,60.85875,0,0,0-12.61967-36.89959h12.61967A61.57307,61.57307,0,0,1,845.11549,648.12289Zm-98.39891-209.0977a36.89959,36.89959,0,0,1,0,73.79918H623.718a12.29987,12.29987,0,1,1,0-24.59973h86.099V463.62491H623.718a36.8996,36.8996,0,0,0,0,73.79921H746.71658A61.57309,61.57309,0,0,0,808.2159,475.9248a60.918,60.918,0,0,0-11.36507-35.3744,61.49928,61.49928,0,0,1-13.23466,121.47344H611.41808a61.49932,61.49932,0,0,1,0-122.99863h135.2985ZM463.81972,266.8271c0-31.45076,23.67723-64.15609,36.89959-79.94912,13.23466,15.78073,36.89959,48.42457,36.89959,79.94912a36.89951,36.89951,0,0,1-24.59973,34.63641V279.127H488.41945v22.33655A36.89955,36.89955,0,0,1,463.81972,266.8271ZM291.62163,515.01374a111.08227,111.08227,0,0,1,48.523,81.25288A135.60324,135.60324,0,0,0,291.73233,629.218a136.129,136.129,0,0,0-48.646-32.75456A111.05489,111.05489,0,0,1,291.62163,515.01374Zm61.6992,102.46708a110.73953,110.73953,0,0,1,36.69971-6.25757c1.93107,0,3.94824.07381,6.05154.20908A110.69921,110.69921,0,0,1,291.62163,758.82161c-1.93107,0-3.94826-.0738-6.05153-.20907A110.6978,110.6978,0,0,1,353.32083,617.48082Zm-172.398,30.64207a110.03735,110.03735,0,0,1,6.24833-36.69051c2.10327-.13532,4.12045-.20908,6.05153-.20908A109.55493,109.55493,0,0,1,276.2714,648.947a133.19751,133.19751,0,0,0-17.58881,104.88094A110.69822,110.69822,0,0,1,180.92286,648.12289ZM382.41922,808.02112H200.824l-12.29987-24.59973H394.71909Zm118.30009,0H409.92172l12.29986-24.59973h29.29828V758.82166H369.17227a135.101,135.101,0,0,0,46.924-163.74808,12.301,12.301,0,0,0-9.83988-7.3799,129.62266,129.62266,0,0,0-42.02863,1.476,134.71545,134.71545,0,0,0-11.894-39.44567h.78718V388.07915l295.19672-45.41109v71.7574H611.41808A85.98794,85.98794,0,0,0,552.00972,562.688a85.96375,85.96375,0,0,0-49.92515,146.93421H488.41945a12.30041,12.30041,0,0,0-12.29987,12.29986v49.19946a12.30042,12.30042,0,0,0,12.29987,12.29986h12.29986Zm53.898,0H525.319V783.42139h41.59814Zm93.70036,0H582.11981l12.29986-24.59973h53.898Zm172.19809,0H791.21749l-12.29986-24.59973h41.59813Zm24.59973-49.19946H500.71931V734.22193H845.11549Z"/><rect class="cls-3" x="377.72068" y="414.42546" width="24.59973" height="98.39891"/><rect class="cls-3" x="377.72068" y="537.42412" width="24.59973" height="24.59973"/></g><text class="cls-4" transform="translate(162.19981 602.19727)">S<tspan class="cls-5" x="223.29492" y="0">p</tspan><tspan x="461.64502" y="0">a</tspan></text></svg>